<?xml version="1.0" encoding="UTF-8"?>
<svg width="85.6mm" height="53.98mm" version="1.1" viewBox="0 0 323.53 204.02" xmlns="http://www.w3.org/2000/svg">
<path transform="rotate(-21.97)" d="m178.09 71.847-3.3001-3.09e-4 0.00137 218.67 48.91 19.732 76.33-189.2-121.94-49.194z" fill="#ff0054" vector-effect="non-scaling-stroke" style="-inkscape-stroke:hairline;paint-order:stroke fill markers"/>
<path transform="rotate(47.478)" d="m289.12-173.84 9.6e-4 160.42 79.91-87.14-79.911-73.28z" fill="#ff0090" vector-effect="non-scaling-stroke" style="-inkscape-stroke:hairline;paint-order:stroke fill markers"/>
<path d="m218.22 26.992-2.1935-9.1878h1.899l1.3851 6.3111 1.6796-6.3111h2.2061l1.6107 6.4176 1.4101-6.4176h1.8676l-2.2311 9.1878h-1.9679l-1.83-6.8689-1.8238 6.8689zm10.755 0v-9.1878h1.8551v9.1878zm3.1524-2.9895 1.805-0.17548q0.16295 0.90875 0.65806 1.3349 0.50138 0.42617 1.3475 0.42617 0.89621 0 1.3474-0.37603 0.45751-0.3823 0.45751-0.88995 0-0.3259-0.19428-0.55152-0.18802-0.23189-0.66433-0.4011-0.3259-0.11281-1.4853-0.4011-1.4916-0.36977-2.0932-0.90875-0.84608-0.75834-0.84608-1.8488 0-0.70193 0.39484-1.3099 0.4011-0.61419 1.1469-0.93382 0.75207-0.31963 1.8112-0.31963 1.7298 0 2.6009 0.75834 0.87742 0.75834 0.92129 2.0243l-1.8551 0.08147q-0.11908-0.7082-0.51392-1.0153-0.38857-0.31336-1.172-0.31336-0.80847 0-1.266 0.33216-0.29456 0.21309-0.29456 0.57032 0 0.3259 0.27576 0.55778 0.35096 0.29456 1.7047 0.61419 1.3537 0.31963 1.9992 0.66433 0.65179 0.33843 1.0153 0.93382 0.36977 0.58912 0.36977 1.4603 0 0.78967-0.4387 1.4791-0.43871 0.6894-1.2409 1.0278-0.8022 0.33216-1.9992 0.33216-1.7423 0-2.6761-0.80221-0.93381-0.80847-1.1156-2.3502zm8.561 0 1.805-0.17548q0.16295 0.90875 0.65806 1.3349 0.50138 0.42617 1.3475 0.42617 0.89621 0 1.3475-0.37603 0.4575-0.3823 0.4575-0.88995 0-0.3259-0.19428-0.55152-0.18802-0.23189-0.66433-0.4011-0.32589-0.11281-1.4853-0.4011-1.4916-0.36977-2.0933-0.90875-0.84608-0.75834-0.84608-1.8488 0-0.70193 0.39484-1.3099 0.4011-0.61419 1.1469-0.93382 0.75207-0.31963 1.8112-0.31963 1.7298 0 2.6009 0.75834 0.87741 0.75834 0.92128 2.0243l-1.8551 0.08147q-0.11908-0.7082-0.51391-1.0153-0.38857-0.31336-1.172-0.31336-0.80847 0-1.266 0.33216-0.29456 0.21309-0.29456 0.57032 0 0.3259 0.27576 0.55778 0.35097 0.29456 1.7047 0.61419t1.9992 0.66433q0.65179 0.33843 1.0153 0.93382 0.36977 0.58912 0.36977 1.4603 0 0.78967-0.43871 1.4791t-1.2409 1.0278q-0.80221 0.33216-1.9992 0.33216-1.7423 0-2.6761-0.80221-0.93382-0.80847-1.1156-2.3502zm9.0311 2.9895v-9.1878h6.8125v1.5543h-4.9574v2.0369h4.6127v1.548h-4.6127v2.5006h5.1329v1.548zm8.5798 0v-9.1878h1.805l3.7603 6.1356v-6.1356h1.7235v9.1878h-1.8614l-3.7039-5.9915v5.9915z" fill="#fff" stroke-linecap="round" stroke-linejoin="round" stroke-width=".20055" style="paint-order:stroke fill markers" aria-label="WISSEN"/>
<path d="m226.3 53.15v-9.1878h6.8125v1.5543h-4.9574v2.0369h4.6127v1.548h-4.6127v2.5006h5.1329v1.548zm8.5673 0v-9.1878h3.9045q1.4728 0 2.1371 0.25069 0.6706 0.24442 1.0717 0.87741t0.4011 1.4477q0 1.0341-0.60792 1.711-0.60792 0.67059-1.8175 0.84608 0.60166 0.35097 0.99022 0.77087 0.39484 0.4199 1.0592 1.4916l1.1218 1.7924h-2.2186l-1.3412-1.9992q-0.71446-1.0717-0.97769-1.3475-0.26322-0.28202-0.55778-0.3823-0.29456-0.10654-0.93382-0.10654h-0.37603v3.8355zm1.8551-5.3021h1.3725q1.3349 0 1.6671-0.11281 0.33216-0.11281 0.52018-0.38857 0.18801-0.27576 0.18801-0.6894 0-0.46378-0.25069-0.7458-0.24442-0.28829-0.69566-0.3635-0.22562-0.03134-1.3537-0.03134h-1.4477zm7.458 5.3021v-9.1126h1.8551v7.5646h4.6127v1.548zm7.7902 0v-9.1878h6.8125v1.5543h-4.9574v2.0369h4.6127v1.548h-4.6127v2.5006h5.1329v1.548zm8.5673-9.1878h3.6726q1.0905 0 1.6232 0.09401 0.53898 0.08774 0.95889 0.37603 0.42617 0.28829 0.70819 0.77087 0.28203 0.47631 0.28203 1.0717 0 0.64552-0.35097 1.1845-0.34469 0.53898-0.94008 0.80847 0.83981 0.24442 1.291 0.83354 0.45124 0.58912 0.45124 1.3851 0 0.62672-0.29456 1.2221-0.28829 0.58912-0.79594 0.94635-0.50138 0.35096-1.2409 0.43244-0.46378 0.05014-2.2374 0.06267h-3.1274zm1.8551 1.5292v2.1246h1.2158q1.0842 0 1.3475-0.03134 0.47631-0.0564 0.7458-0.3259 0.27576-0.27576 0.27576-0.72073 0-0.42617-0.23816-0.6894-0.23189-0.26949-0.69566-0.3259-0.27576-0.03134-1.5856-0.03134zm0 3.6538v2.4568h1.7172q1.0028 0 1.2722-0.05641 0.41364-0.07521 0.67059-0.3635 0.26323-0.29456 0.26323-0.7834 0-0.41364-0.20056-0.70193-0.20055-0.28829-0.58285-0.4199-0.37603-0.13161-1.642-0.13161zm7.4079 4.0048v-9.1878h6.8125v1.5543h-4.9574v2.0369h4.6127v1.548h-4.6127v2.5006h5.1329v1.548zm8.5798 0v-9.1878h1.805l3.7604 6.1356v-6.1356h1.7235v9.1878h-1.8614l-3.7039-5.9915v5.9915z" fill="#fff" stroke-linecap="round" stroke-linejoin="round" stroke-width=".20055" style="paint-order:stroke fill markers" aria-label="ERLEBEN"/>
<path d="m235.31 37.586 1.278-0.11981-0.0133 0.33947q0 0.56578 0.25959 1.0384 0.25959 0.46593 0.85865 0.72553 0.59906 0.25294 1.4244 0.25294 1.1715 0 1.7839-0.51253 0.61902-0.51253 0.61902-1.1715 0-0.45928-0.32615-0.83868-0.33281-0.37275-1.8171-1.0117-1.1515-0.49922-1.5709-0.76546-0.65896-0.43265-0.9718-0.93852-0.31284-0.51253-0.31284-1.1648 0-0.75215 0.41268-1.3579 0.41268-0.60571 1.2048-0.92521 0.79875-0.3195 1.7972-0.3195 1.1915 0 2.0102 0.39937t1.1848 1.065q0.37275 0.66562 0.37275 1.2713 0 0.05991-7e-3 0.19969l-1.258 0.09984q0-0.41268-0.0732-0.64565-0.13312-0.40603-0.41268-0.68559-0.27956-0.27956-0.77212-0.44596-0.4859-0.17306-1.0916-0.17306-1.065 0-1.6574 0.47925-0.45262 0.36609-0.45262 0.9718 0 0.35944 0.18637 0.64565 0.18637 0.27956 0.67228 0.55246 0.34612 0.19303 1.6441 0.76546 1.0517 0.46593 1.451 0.73218 0.5325 0.35278 0.81871 0.85865 0.28622 0.49922 0.28622 1.1382 0 0.79209-0.4859 1.4644-0.47925 0.66562-1.3312 1.0317-0.852 0.36609-1.9503 0.36609-1.6574 0-2.7091-0.71887-1.045-0.72553-1.0517-2.6026zm16.354-0.27956 1.2913 0.17972q-0.61237 1.6907-1.7839 2.556-1.1715 0.86531-2.6292 0.86531-1.7772 0-2.8222-1.085-1.0384-1.085-1.0384-3.1084 0-2.6359 1.5842-4.3598 1.4111-1.5376 3.5078-1.5376 1.5509 0 2.5094 0.83202 0.96515 0.83202 1.1182 2.2365l-1.2181 0.11316q-0.19303-1.0583-0.79875-1.5775-0.59906-0.52584-1.5509-0.52584-1.7905 0-2.8954 1.5908-0.95849 1.3712-0.95849 3.2549 0 1.5043 0.73884 2.2964 0.73883 0.79209 1.9236 0.79209 1.0117 0 1.8304-0.65896 0.81872-0.65896 1.1915-1.8637zm2.1966 3.4346 2.0434-9.758h1.298l-0.84533 4.0536h5.0587l0.84534-4.0536h1.3046l-2.0368 9.758h-1.3046l0.95849-4.5994h-5.052l-0.96515 4.5994zm8.9992 0 5.5313-9.758h1.5376l1.6108 9.758h-1.2647l-0.47259-2.8089h-3.9471l-1.5642 2.8089zm3.5544-3.814h3.2282l-0.3794-2.4495q-0.21966-1.4577-0.2729-2.4295-0.33281 0.83868-0.97181 1.9902zm6.4299 3.814 2.0368-9.758h6.3434l-0.23296 1.1116h-5.0388l-0.64565 3.1084h5.1319l-0.23296 1.1116h-5.1319l-0.92522 4.4264zm8.3269 0 2.0368-9.758h6.3434l-0.23297 1.1116h-5.0387l-0.64565 3.1084h5.1319l-0.23297 1.1116h-5.1319l-0.92521 4.4264zm10.803 0 1.8038-8.6464h-3.2016l0.23297-1.1116h7.6813l-0.23297 1.1116h-3.175l-1.8038 8.6464z" fill="#fff" stroke-linecap="round" stroke-linejoin="round" stroke-width=".213" style="paint-order:stroke fill markers" aria-label="SCHAFFT"/>
</svg>
